<?xml version="1.0" encoding="UTF-8"?>
<svg xmlns="http://www.w3.org/2000/svg" width="540" height="560" viewBox="0 0 540 560">
  <defs>
    <linearGradient id="dataFill" x1="0" y1="0" x2="1" y2="1">
      <stop offset="0%" stop-color="#2DC653" stop-opacity="0.35"/>
      <stop offset="100%" stop-color="#457B9D" stop-opacity="0.25"/>
    </linearGradient>
  </defs>

  <!-- Background -->
  <rect width="540" height="560" fill="#0F172A" rx="12"/>

  <!-- Title -->
  <text x="270" y="28" text-anchor="middle" font-family="ui-monospace,monospace"
    font-size="15" fill="#F1F5F9" font-weight="700">Portfolio Stat Balance</text>
  <text x="270" y="46" text-anchor="middle" font-family="ui-monospace,monospace"
    font-size="11" fill="#64748B">2026-03-28 · 24 total legs across 3 stat categories</text>

  <!-- Grid rings -->
  <path d="M270.0,230.0 L298.3,241.7 L310.0,270.0 L298.3,298.3 L270.0,310.0 L241.7,298.3 L230.0,270.0 L241.7,241.7 Z" fill="none" stroke="#334155" stroke-width="1" opacity="0.5"/>
  <path d="M270.0,190.0 L326.6,213.4 L350.0,270.0 L326.6,326.6 L270.0,350.0 L213.4,326.6 L190.0,270.0 L213.4,213.4 Z" fill="none" stroke="#334155" stroke-width="1" opacity="0.5"/>
  <path d="M270.0,150.0 L354.9,185.1 L390.0,270.0 L354.9,354.9 L270.0,390.0 L185.1,354.9 L150.0,270.0 L185.1,185.1 Z" fill="none" stroke="#334155" stroke-width="1" opacity="0.5"/>
  <path d="M270.0,110.0 L383.1,156.9 L430.0,270.0 L383.1,383.1 L270.0,430.0 L156.9,383.1 L110.0,270.0 L156.9,156.9 Z" fill="none" stroke="#334155" stroke-width="1" opacity="0.5"/>
  <path d="M270.0,70.0 L411.4,128.6 L470.0,270.0 L411.4,411.4 L270.0,470.0 L128.6,411.4 L70.0,270.0 L128.6,128.6 Z" fill="none" stroke="#334155" stroke-width="1" opacity="0.5"/>

  <!-- Axis spokes -->
  <line x1="270" y1="270" x2="270.0" y2="70.0" stroke="#334155" stroke-width="1.5" opacity="0.7"/>
  <line x1="270" y1="270" x2="411.4" y2="128.6" stroke="#334155" stroke-width="1.5" opacity="0.7"/>
  <line x1="270" y1="270" x2="470.0" y2="270.0" stroke="#334155" stroke-width="1.5" opacity="0.7"/>
  <line x1="270" y1="270" x2="411.4" y2="411.4" stroke="#334155" stroke-width="1.5" opacity="0.7"/>
  <line x1="270" y1="270" x2="270.0" y2="470.0" stroke="#334155" stroke-width="1.5" opacity="0.7"/>
  <line x1="270" y1="270" x2="128.6" y2="411.4" stroke="#334155" stroke-width="1.5" opacity="0.7"/>
  <line x1="270" y1="270" x2="70.0" y2="270.0" stroke="#334155" stroke-width="1.5" opacity="0.7"/>
  <line x1="270" y1="270" x2="128.6" y2="128.6" stroke="#334155" stroke-width="1.5" opacity="0.7"/>

  <!-- Ring pct labels -->
  <text x="276" y="230" font-family="ui-monospace,monospace" font-size="9" fill="#475569">20%</text>
  <text x="276" y="190" font-family="ui-monospace,monospace" font-size="9" fill="#475569">40%</text>
  <text x="276" y="150" font-family="ui-monospace,monospace" font-size="9" fill="#475569">60%</text>
  <text x="276" y="110" font-family="ui-monospace,monospace" font-size="9" fill="#475569">80%</text>
  <text x="276" y="70" font-family="ui-monospace,monospace" font-size="9" fill="#475569">100%</text>

  <!-- Data polygon -->
  <path d="M270.0,136.7 L299.5,240.5 L270.0,270.0 L287.7,287.7 L270.0,270.0 L270.0,270.0 L270.0,270.0 L270.0,270.0 Z" fill="url(#dataFill)" stroke="#2DC653" stroke-width="2.5" opacity="0.9"/>

  <!-- Data dots -->
  <circle cx="270.0" cy="136.7" r="5" fill="#E63946" stroke="#fff" stroke-width="1.5"/>
  <circle cx="299.5" cy="240.5" r="5" fill="#457B9D" stroke="#fff" stroke-width="1.5"/>
  
  <circle cx="287.7" cy="287.7" r="5" fill="#F4A261" stroke="#fff" stroke-width="1.5"/>
  
  
  
  

  <!-- Axis labels -->
  <text x="270.0" y="42.0" text-anchor="middle" dominant-baseline="middle"   font-family="ui-monospace,monospace" font-size="13" fill="#E63946" font-weight="700">PTS 67%</text> <text x="270.0" y="58.0" text-anchor="middle" dominant-baseline="middle"   font-family="ui-monospace,monospace" font-size="10" fill="#94A3B8">16 legs</text>
  <text x="431.2" y="108.8" text-anchor="start" dominant-baseline="middle"   font-family="ui-monospace,monospace" font-size="13" fill="#457B9D" font-weight="700">REB 21%</text> <text x="431.2" y="124.8" text-anchor="start" dominant-baseline="middle"   font-family="ui-monospace,monospace" font-size="10" fill="#94A3B8">5 legs</text>
  
  <text x="431.2" y="431.2" text-anchor="start" dominant-baseline="middle"   font-family="ui-monospace,monospace" font-size="13" fill="#F4A261" font-weight="700">3PM 13%</text> <text x="431.2" y="447.2" text-anchor="start" dominant-baseline="middle"   font-family="ui-monospace,monospace" font-size="10" fill="#94A3B8">3 legs</text>
  
  
  
  

  <!-- Legend -->
  <rect x="30" y="480" width="480" height="70" rx="6" fill="#1E293B" opacity="0.8"/>
  <text x="50" y="474" font-family="ui-monospace,monospace" font-size="10" fill="#64748B">STAT DISTRIBUTION</text>
  <rect x="50" y="488" width="10" height="10" rx="2" fill="#E63946"/><text x="64" y="495" font-family="ui-monospace,monospace" font-size="11" fill="#94A3B8">Points (67%)</text>
  <rect x="165" y="488" width="10" height="10" rx="2" fill="#457B9D"/><text x="179" y="495" font-family="ui-monospace,monospace" font-size="11" fill="#94A3B8">Rebounds (21%)</text>
  <rect x="280" y="488" width="10" height="10" rx="2" fill="#F4A261"/><text x="294" y="495" font-family="ui-monospace,monospace" font-size="11" fill="#94A3B8">3-Pointers (13%)</text>
</svg>